<svg xmlns="http://www.w3.org/2000/svg" viewBox="0 0 378.07 77.07"><path d="M22.71 42.83H2.68V.72h19.55c8.6 0 13.89 4.27 13.89 10.89v.12c0 4.75-2.53 7.4-5.53 9.08 4.87 1.86 7.88 4.69 7.88 10.35v.12c0 7.7-6.25 11.55-15.76 11.55zm4.21-29.66c0-2.77-2.17-4.33-6.08-4.33H11.7v8.9h8.54c4.09 0 6.68-1.32 6.68-4.45v-.12zm2.35 16.85c0-2.83-2.11-4.57-6.86-4.57H11.7v9.26h11.01c4.09 0 6.56-1.44 6.56-4.57v-.12zM45.98 42.83V.72h9.26V34.4h20.99v8.42H45.98zM115.16 42.83l-3.85-9.44h-17.8l-3.85 9.44h-9.44L98.26.42h8.54l18.05 42.41h-9.69zm-12.75-31.28L96.82 25.2H108l-5.59-13.65zM147.56 43.55c-12.39 0-21.59-9.56-21.59-21.65v-.12C125.96 9.8 134.99 0 147.92 0c7.94 0 12.69 2.65 16.6 6.5l-5.89 6.8c-3.25-2.95-6.56-4.75-10.77-4.75-7.1 0-12.21 5.9-12.21 13.11v.12c0 7.22 4.99 13.23 12.21 13.23 4.81 0 7.76-1.92 11.07-4.93l5.89 5.96c-4.33 4.62-9.14 7.51-17.26 7.51zM198.21 42.83L185.16 24.9l-4.87 5.05v12.87h-9.26V.72h9.26v18.41L197.37.72h11.19l-17.14 17.86 17.92 24.24h-11.13zM253.01 42.83h-20.03V.72h19.55c8.6 0 13.89 4.27 13.89 10.89v.12c0 4.75-2.53 7.4-5.53 9.08 4.87 1.86 7.88 4.69 7.88 10.35v.12c-.01 7.7-6.26 11.55-15.76 11.55zm4.21-29.66c0-2.77-2.17-4.33-6.08-4.33H242v8.9h8.54c4.09 0 6.68-1.32 6.68-4.45v-.12zm2.34 16.85c0-2.83-2.11-4.57-6.86-4.57H242v9.26h11.01c4.09 0 6.56-1.44 6.56-4.57v-.12zM276.43 42.83V.72h9.26v42.1h-9.26zM321.15 42.83l-9.02-13.47h-7.28v13.47h-9.26V.72h19.25c9.92 0 15.88 5.23 15.88 13.89v.12c0 6.8-3.67 11.07-9.02 13.05l10.29 15.04h-10.84zm.18-27.73c0-3.97-2.77-6.02-7.28-6.02h-9.2v12.09h9.38c4.51 0 7.1-2.41 7.1-5.95v-.12zM355.11 42.83h-16.42V.72h16.42c13.23 0 22.38 9.08 22.38 20.93v.12c0 11.85-9.14 21.06-22.38 21.06zm12.7-21.06c0-7.46-5.11-12.69-12.69-12.69h-7.16v25.38h7.16c7.58 0 12.69-5.11 12.69-12.57v-.12z"/><g><path d="M135.93 77.07c-4.24 0-7.37-3.34-7.37-7.58 0-4.2 3.11-7.62 7.43-7.62 2.67 0 4.26.94 5.73 2.33l-1.13 1.22c-1.24-1.18-2.62-2.02-4.62-2.02-3.25 0-5.69 2.62-5.69 6.05s2.46 6.09 5.69 6.09c2.02 0 3.34-.78 4.75-2.12l1.09 1.07c-1.53 1.55-3.21 2.58-5.88 2.58zM146.3 62.12h1.66v13.16h8.27v1.53h-9.93V62.12zM166.71 77.07c-4.47 0-7.47-3.51-7.47-7.58s3.04-7.62 7.52-7.62 7.47 3.51 7.47 7.58-3.05 7.62-7.52 7.62zm0-13.67c-3.36 0-5.75 2.69-5.75 6.05s2.44 6.09 5.79 6.09 5.75-2.69 5.75-6.05-2.43-6.09-5.79-6.09zM183.84 76.82h-1.68V63.65h-4.93v-1.53h11.55v1.53h-4.93v13.17zM194.9 70.2v6.61h-1.66v-14.7h1.66v6.53h8.48v-6.53h1.66v14.7h-1.66V70.2h-8.48zM212.66 62.12v14.7H211v-14.7h1.66zM229.38 62.12H231v14.7h-1.32l-9.49-12.05v12.05h-1.62v-14.7h1.55l9.26 11.78V62.12zM243.61 77.07c-4.62 0-7.47-3.36-7.47-7.58 0-4.05 2.96-7.62 7.37-7.62 2.48 0 4.01.71 5.48 1.95l-1.07 1.26c-1.13-.99-2.39-1.68-4.47-1.68-3.25 0-5.58 2.75-5.58 6.05 0 3.53 2.25 6.13 5.82 6.13 1.68 0 3.23-.65 4.24-1.47v-3.65h-4.47v-1.49h6.07v5.86c-1.38 1.21-3.44 2.24-5.92 2.24z"/></g><g><path d="M0 68.63h112.65v1.68H0zM265.42 68.63h112.65v1.68H265.42z"/></g></svg>